<svg xmlns="http://www.w3.org/2000/svg" version="1.1" xmlns:xlink="http://www.w3.org/1999/xlink" width="512" height="512" x="0" y="0" viewBox="0 0 512 512" style="enable-background:new 0 0 512 512" xml:space="preserve" class=""><g><path fill="#ffffff" fill-rule="evenodd" d="M329.126 255.92 480 130.563v250.719zm-121.216 20.8L51.689 406.528h408.622L304.09 276.722l-15.5 12.878a51.016 51.016 0 0 1-65.186 0l-15.5-12.878zm-25.035-20.8L32 381.282V130.563zm85.269 9.066 192.169-159.669H51.689l192.167 159.669a18.782 18.782 0 0 0 24.288 0zM461 73.316H51a51.056 51.056 0 0 0-51 51v263.211a51.06 51.06 0 0 0 51 51h410a51.06 51.06 0 0 0 51-51V124.313a51.056 51.056 0 0 0-51-50.997z" opacity="1" data-original="#f44336" class=""></path></g></svg>